<svg width="240" height="244" viewBox="0 0 240 244" fill="none" xmlns="http://www.w3.org/2000/svg">
<path d="M70.01 106L104.33 29H121.93L156.36 106H137.66L109.5 38.02H116.54L88.27 106H70.01ZM87.17 89.5L91.9 75.97H131.5L136.34 89.5H87.17Z" fill="#F21CF7"/>
<path d="M130.167 124.621L145.341 120.449L125.947 84.2448L143.704 79.3631L164.584 124.932L150.702 128.748L168.256 170.345L130.167 124.621Z" fill="#F21CF7"/>
<path d="M0.625 225L24.25 172.5H33.85L57.55 225H47.35L27.025 177.675H30.925L10.675 225H0.625ZM11.5 212.85L14.125 205.2H42.475L45.1 212.85H11.5ZM59.7637 208.05V200.25H80.3887V208.05H59.7637ZM109.754 225.525C105.554 225.525 101.804 224.65 98.5035 222.9C95.2535 221.1 92.7035 218.65 90.8535 215.55C89.0035 212.45 88.0785 208.925 88.0785 204.975C88.0785 200.975 89.0035 197.45 90.8535 194.4C92.7035 191.3 95.2535 188.875 98.5035 187.125C101.804 185.375 105.554 184.5 109.754 184.5C113.654 184.5 117.079 185.3 120.029 186.9C123.029 188.45 125.304 190.75 126.854 193.8L119.654 198C118.454 196.1 116.979 194.7 115.229 193.8C113.529 192.9 111.679 192.45 109.679 192.45C107.379 192.45 105.304 192.95 103.454 193.95C101.604 194.95 100.154 196.4 99.1035 198.3C98.0535 200.15 97.5285 202.375 97.5285 204.975C97.5285 207.575 98.0535 209.825 99.1035 211.725C100.154 213.575 101.604 215 103.454 216C105.304 217 107.379 217.5 109.679 217.5C111.679 217.5 113.529 217.05 115.229 216.15C116.979 215.25 118.454 213.85 119.654 211.95L126.854 216.15C125.304 219.15 123.029 221.475 120.029 223.125C117.079 224.725 113.654 225.525 109.754 225.525ZM159.633 225V216.9L159.108 215.175V201C159.108 198.25 158.283 196.125 156.633 194.625C154.983 193.075 152.483 192.3 149.133 192.3C146.883 192.3 144.658 192.65 142.458 193.35C140.308 194.05 138.483 195.025 136.983 196.275L133.308 189.45C135.458 187.8 138.008 186.575 140.958 185.775C143.958 184.925 147.058 184.5 150.258 184.5C156.058 184.5 160.533 185.9 163.683 188.7C166.883 191.45 168.483 195.725 168.483 201.525V225H159.633ZM147.033 225.525C144.033 225.525 141.408 225.025 139.158 224.025C136.908 222.975 135.158 221.55 133.908 219.75C132.708 217.9 132.108 215.825 132.108 213.525C132.108 211.275 132.633 209.25 133.683 207.45C134.783 205.65 136.558 204.225 139.008 203.175C141.458 202.125 144.708 201.6 148.758 201.6H160.383V207.825H149.433C146.233 207.825 144.083 208.35 142.983 209.4C141.883 210.4 141.333 211.65 141.333 213.15C141.333 214.85 142.008 216.2 143.358 217.2C144.708 218.2 146.583 218.7 148.983 218.7C151.283 218.7 153.333 218.175 155.133 217.125C156.983 216.075 158.308 214.525 159.108 212.475L160.683 218.1C159.783 220.45 158.158 222.275 155.808 223.575C153.508 224.875 150.583 225.525 147.033 225.525ZM180.514 225V169.35H189.889V225H180.514ZM220.569 225.525C216.369 225.525 212.619 224.65 209.319 222.9C206.069 221.1 203.519 218.65 201.669 215.55C199.819 212.45 198.894 208.925 198.894 204.975C198.894 200.975 199.819 197.45 201.669 194.4C203.519 191.3 206.069 188.875 209.319 187.125C212.619 185.375 216.369 184.5 220.569 184.5C224.469 184.5 227.894 185.3 230.844 186.9C233.844 188.45 236.119 190.75 237.669 193.8L230.469 198C229.269 196.1 227.794 194.7 226.044 193.8C224.344 192.9 222.494 192.45 220.494 192.45C218.194 192.45 216.119 192.95 214.269 193.95C212.419 194.95 210.969 196.4 209.919 198.3C208.869 200.15 208.344 202.375 208.344 204.975C208.344 207.575 208.869 209.825 209.919 211.725C210.969 213.575 212.419 215 214.269 216C216.119 217 218.194 217.5 220.494 217.5C222.494 217.5 224.344 217.05 226.044 216.15C227.794 215.25 229.269 213.85 230.469 211.95L237.669 216.15C236.119 219.15 233.844 221.475 230.844 223.125C227.894 224.725 224.469 225.525 220.569 225.525Z" fill="white"/>
</svg>
